<?xml version="1.0" encoding="UTF-8"?>
<svg width="20px" height="20px" viewBox="0 0 20 20" version="1.1" xmlns="http://www.w3.org/2000/svg" xmlns:xlink="http://www.w3.org/1999/xlink">
    <!-- Generator: Sketch 56.3 (81716) - https://sketch.com -->
    <title>Search Icon</title>
    <desc>Created with Sketch.</desc>
    <g id="Ecom" stroke="none" stroke-width="1" fill="none" fill-rule="evenodd">
        <g id="Home-Page_search" transform="translate(-993.000000, -41.000000)" fill="#FFFFFF">
            <g id="Group-34">
                <g id="Header-content" transform="translate(150.000000, 26.000000)">
                    <g id="Group" transform="translate(240.000000, 0.000000)">
                        <path d="M617.293882,27.578976 L616.390509,27.578976 L616.070326,27.2702193 C617.190966,25.9665799 617.865638,24.2741359 617.865638,22.4330312 C617.865638,18.3277109 614.538022,15 610.432819,15 C606.327616,15 603,18.3277109 603,22.4330312 C603,26.5383516 606.327616,29.8654907 610.432819,29.8654907 C612.273871,29.8654907 613.966266,29.191372 615.269868,28.0701278 L615.578616,28.3908917 L615.578616,29.2942909 L621.296169,35 L623,33.2961205 L617.293882,27.578976 L617.293882,27.578976 Z M610.432819,27.578976 C607.585477,27.578976 605.287021,25.280454 605.287021,22.4330312 C605.287021,19.5856085 607.585477,17.2870865 610.432819,17.2870865 C613.28016,17.2870865 615.578616,19.5856085 615.578616,22.4330312 C615.578616,25.280454 613.28016,27.578976 610.432819,27.578976 L610.432819,27.578976 Z" id="Search-Icon"></path>
                    </g>
                </g>
            </g>
        </g>
    </g>
</svg>